<svg xmlns="http://www.w3.org/2000/svg" viewBox="0 0 1500 500" width="1500" height="500" role="img" aria-label="Fi Sabilillah"><defs><linearGradient id="fsGold" x1="0.12" y1="0" x2="0.62" y2="1"><stop offset="0%" stop-color="#F0DFA8"/><stop offset="28%" stop-color="#E0C264"/><stop offset="64%" stop-color="#D4AF37"/><stop offset="100%" stop-color="#A8811F"/></linearGradient><linearGradient id="fsWord" x1="0" y1="0" x2="0" y2="1"><stop offset="0%" stop-color="#FFFDF6"/><stop offset="62%" stop-color="#F5F2E9"/><stop offset="100%" stop-color="#E8DCC0"/></linearGradient><radialGradient id="halo" cx="50%" cy="50%" r="62%"><stop offset="0%" stop-color="#1C574A" stop-opacity="0.55"/><stop offset="100%" stop-color="#0F3D34" stop-opacity="0"/></radialGradient></defs><rect width="1500" height="500" fill="#0F3D34"/><rect width="1500" height="500" fill="url(#halo)"/><g transform="translate(293.99,138.29) scale(3.82057)"><path d="M32 51 C25.4 51.8 19.4 53.6 15 56.4 C13.2 57.5 11.8 56.6 12.4 54.8 C14.2 49.8 22.2 46.6 32 48 Z" fill="url(#fsGold)"/><path d="M32 51 C38.6 51.8 44.6 53.6 49 56.4 C50.8 57.5 52.2 56.6 51.6 54.8 C49.8 49.8 41.8 46.6 32 48 Z" fill="url(#fsGold)"/><path d="M32 6 C33.6 8.4 35.2 10.4 36.9 12.6 C40.4 17 43.4 20.6 43.4 25.9 C43.4 30.8 43.3 35 43 39.2 C42.7 44.4 38.2 49.4 32 52.4 C25.8 49.4 21.3 44.4 21 39.2 C20.7 35 20.6 30.8 20.6 25.9 C20.6 20.6 23.6 17 27.1 12.6 C28.8 10.4 30.4 8.4 32 6 Z" fill="#0A2A24"/><path d="M32 3.6 C33.8 6.2 35.8 8.6 37.8 11.2 C41.8 16.2 45.4 20.2 45.4 25.8 C45.4 31 45.3 35.4 45 39.6 C44.6 45.6 39.4 51.4 32 54.8 C24.6 51.4 19.4 45.6 19 39.6 C18.7 35.4 18.6 31 18.6 25.8 C18.6 20.2 22.2 16.2 26.2 11.2 C28.2 8.6 30.2 6.2 32 3.6 Z" fill="none" stroke="url(#fsGold)" stroke-width="4.0" stroke-linejoin="round"/><path d="M32 8 C33.4 10.4 34.8 12.2 36.2 14.2 C39.3 18.2 41.9 21.4 41.9 26.1 C41.9 30.5 41.8 34.4 41.5 38.2 C41.2 42.9 37.3 47.4 32 50.1 C26.7 47.4 22.8 42.9 22.5 38.2 C22.2 34.4 22.1 30.5 22.1 26.1 C22.1 21.4 24.7 18.2 27.8 14.2 C29.2 12.2 30.6 10.4 32 8 Z" fill="none" stroke="#F4E6BB" stroke-width="0.85" opacity="0.9"/><path d="M32.591 16.505 A4.9 4.9 0 1 0 32.591 24.695 A4.1 4.1 0 0 1 32.591 16.505 Z" fill="url(#fsGold)"/><path d="M35.00 15.20 L35.57 16.62 L37.09 16.72 L35.92 17.70 L36.29 19.18 L35.00 18.37 L33.71 19.18 L34.08 17.70 L32.91 16.72 L34.43 16.62 Z" fill="url(#fsGold)"/><path d="M26.83 33.15Q26.78 33.91 25.90 33.91H25.76Q25.50 33.91 25.30 33.80Q25.11 33.69 25.00 33.49Q24.90 33.28 24.90 33.02Q24.90 32.84 24.94 32.66Q24.99 32.47 25.06 32.32H25.48Q25.43 32.49 25.40 32.68Q25.37 32.87 25.37 33.03Q25.37 33.26 25.49 33.40Q25.60 33.53 25.79 33.53H25.89Q26.13 33.53 26.25 33.40Q26.36 33.27 26.36 33.03V30.74H26.84V32.77H27.25Q27.26 32.77 27.26 32.78V33.14Q27.26 33.15 27.25 33.15Z M27.22 33.15Q27.20 33.15 27.20 33.14V32.78Q27.20 32.77 27.22 32.77H27.71V31.58H28.18V32.77H28.65Q28.67 32.77 28.67 32.78V33.14Q28.67 33.15 28.65 33.15ZM27.64 33.94Q27.54 33.94 27.48 33.88Q27.43 33.82 27.43 33.72Q27.43 33.61 27.48 33.55Q27.54 33.49 27.64 33.49Q27.74 33.49 27.79 33.55Q27.85 33.61 27.85 33.72Q27.85 33.82 27.79 33.88Q27.73 33.94 27.64 33.94ZM28.18 33.94Q28.08 33.94 28.02 33.88Q27.97 33.82 27.97 33.72Q27.97 33.61 28.02 33.55Q28.08 33.49 28.18 33.49Q28.28 33.49 28.33 33.55Q28.39 33.61 28.39 33.72Q28.39 33.82 28.33 33.88Q28.27 33.94 28.18 33.94Z M28.62 33.15Q28.61 33.15 28.61 33.14V32.78Q28.61 32.77 28.62 32.77H29.02V31.58H29.49V32.77H29.90Q29.92 32.77 29.92 32.78V33.14Q29.92 33.15 29.90 33.15ZM29.24 33.94Q29.14 33.94 29.09 33.88Q29.03 33.82 29.03 33.72Q29.03 33.61 29.09 33.55Q29.14 33.49 29.24 33.49Q29.34 33.49 29.40 33.55Q29.45 33.61 29.45 33.72Q29.45 33.82 29.39 33.88Q29.34 33.94 29.24 33.94Z M32.14 33.15Q31.87 33.15 31.64 32.91Q31.46 33.15 31.11 33.15H29.87Q29.85 33.15 29.85 33.14V32.78Q29.85 32.77 29.87 32.77H30.27V31.83H30.74V32.77H31.01Q31.17 32.77 31.24 32.68Q31.31 32.60 31.31 32.40V31.83H31.78V32.44Q31.78 32.52 31.77 32.58Q31.85 32.69 31.93 32.73Q32.00 32.77 32.13 32.77H32.32V31.58H32.80V33.15Z M34.99 33.91Q34.79 33.91 34.65 33.81Q34.51 33.72 34.43 33.56Q34.35 33.39 34.35 33.19Q34.35 32.88 34.45 32.58H34.87Q34.83 32.71 34.82 32.83Q34.80 32.95 34.80 33.12Q34.80 33.23 34.86 33.32Q34.91 33.42 35.00 33.47Q35.08 33.53 35.18 33.53H35.73Q35.86 33.53 35.96 33.52Q36.06 33.51 36.11 33.47Q36.17 33.44 36.17 33.36Q36.17 33.26 35.95 33.20Q35.69 33.14 35.59 33.02Q35.48 32.91 35.48 32.72Q35.48 32.55 35.60 32.37Q35.68 32.25 35.80 32.15Q35.91 32.05 36.04 32.00Q36.16 31.94 36.28 31.94Q36.38 31.94 36.47 31.98Q36.57 32.03 36.67 32.13Q36.76 32.24 36.90 32.44Q37.04 32.65 37.13 32.71Q37.22 32.77 37.33 32.77H37.34Q37.36 32.77 37.36 32.78V33.14Q37.36 33.15 37.34 33.15H37.33Q37.16 33.15 37.03 33.10Q36.91 33.06 36.79 32.92Q36.75 32.89 36.63 32.70Q36.48 32.50 36.39 32.43Q36.31 32.36 36.23 32.36Q36.17 32.36 36.10 32.41Q36.03 32.46 35.97 32.53Q35.92 32.60 35.92 32.65Q35.92 32.78 36.15 32.85Q36.35 32.92 36.45 32.98Q36.64 33.11 36.64 33.34Q36.64 33.62 36.42 33.76Q36.19 33.91 35.73 33.91ZM35.23 34.69Q35.13 34.69 35.08 34.63Q35.02 34.57 35.02 34.47Q35.02 34.36 35.08 34.30Q35.13 34.24 35.23 34.24Q35.33 34.24 35.39 34.30Q35.44 34.36 35.44 34.47Q35.44 34.57 35.38 34.63Q35.33 34.69 35.23 34.69ZM35.77 34.69Q35.67 34.69 35.62 34.63Q35.56 34.57 35.56 34.47Q35.56 34.36 35.62 34.30Q35.67 34.24 35.77 34.24Q35.87 34.24 35.92 34.30Q35.98 34.36 35.98 34.47Q35.98 34.57 35.92 34.63Q35.87 34.69 35.77 34.69Z M38.50 31.31Q38.40 31.31 38.35 31.25Q38.29 31.19 38.29 31.08Q38.29 30.98 38.34 30.92Q38.40 30.85 38.50 30.85Q38.60 30.85 38.65 30.92Q38.71 30.98 38.71 31.08Q38.71 31.19 38.65 31.25Q38.60 31.31 38.50 31.31ZM37.31 33.15Q37.29 33.15 37.29 33.14V32.78Q37.29 32.77 37.31 32.77H37.76Q37.61 32.59 37.61 32.35Q37.61 32.00 37.86 31.79Q38.10 31.58 38.54 31.58H39.10V33.15ZM38.54 32.77H38.63V31.96H38.55Q38.33 31.96 38.21 32.07Q38.10 32.18 38.10 32.38Q38.10 32.57 38.21 32.67Q38.32 32.77 38.54 32.77Z M31.77 39.31H32.04V40.03H31.77ZM31.54 41.29Q31.34 41.29 31.24 41.17Q31.13 41.05 31.13 40.83V40.53H31.42V40.75Q31.42 40.88 31.46 40.95Q31.49 41.01 31.59 41.01Q31.68 41.01 31.73 40.96Q31.77 40.92 31.77 40.79V40.41H32.04V40.70Q32.04 40.80 32.08 40.86Q32.11 40.92 32.22 40.92Q32.32 40.92 32.35 40.87Q32.39 40.82 32.39 40.66V40.34H32.69V40.73Q32.69 40.95 32.57 41.07Q32.46 41.19 32.26 41.19Q32.04 41.19 31.92 41.05Q31.81 41.29 31.54 41.29ZM34.63 41.01H35.33V44.60H34.63ZM30.05 44.60Q29.39 44.60 29.03 44.30Q28.67 43.99 28.67 43.44Q28.67 43.06 28.85 42.80Q29.03 42.53 29.34 42.40Q29.65 42.26 30.05 42.26H30.18V42.03H30.89V44.03H31.68V41.53H32.38V44.03H33.30V41.53H34.00V44.60ZM30.18 44.03V42.83H30.06Q29.74 42.83 29.57 42.99Q29.39 43.14 29.39 43.45Q29.39 43.73 29.56 43.88Q29.73 44.03 30.05 44.03Z" fill="url(#fsGold)"/></g><g transform="translate(0,207.08)"><path d="M633.25 0.00Q632.96 2.87 632.85 5.60Q632.74 8.33 632.74 9.77Q632.74 11.42 632.81 12.93Q632.89 14.43 632.96 15.51H631.31Q630.66 10.27 629.55 7.29Q628.43 4.31 626.21 2.98Q623.98 1.65 619.82 1.65H616.01Q613.71 1.65 612.53 2.05Q611.34 2.44 610.91 3.63Q610.48 4.81 610.48 7.32V43.09Q610.48 45.74 611.06 47.07Q611.63 48.40 613.21 48.83Q614.79 49.26 617.88 49.33V50.84Q615.94 50.70 612.85 50.66Q609.76 50.63 606.46 50.63Q603.59 50.63 600.97 50.66Q598.35 50.70 596.55 50.84V49.41Q598.99 49.26 600.21 48.83Q601.43 48.40 601.83 47.11Q602.22 45.82 602.22 43.23V7.61Q602.22 4.95 601.83 3.70Q601.43 2.44 600.18 1.97Q598.92 1.51 596.55 1.44V0.00Q599.35 0.07 602.40 0.11Q605.46 0.14 608.44 0.18Q611.42 0.22 614.00 0.22Q616.59 0.22 618.24 0.22Q621.54 0.22 625.74 0.18Q629.94 0.14 633.25 0.00ZM622.26 25.13Q622.26 25.13 622.26 25.85Q622.26 26.57 622.26 26.57H608.33Q608.33 26.57 608.33 25.85Q608.33 25.13 608.33 25.13ZM623.77 15.65Q623.48 19.75 623.52 21.90Q623.55 24.06 623.55 25.85Q623.55 27.65 623.62 29.80Q623.69 31.96 623.98 36.05H622.33Q622.04 33.68 621.47 31.49Q620.89 29.30 619.39 27.93Q617.88 26.57 614.86 26.57V25.13Q617.16 25.13 618.49 24.20Q619.82 23.27 620.54 21.76Q621.25 20.25 621.58 18.63Q621.90 17.02 622.12 15.65Z M666.23 0.00V1.44Q663.86 1.51 662.64 1.97Q661.42 2.44 660.99 3.70Q660.56 4.95 660.56 7.61V43.23Q660.56 45.82 660.99 47.11Q661.42 48.40 662.64 48.83Q663.86 49.26 666.23 49.41V50.84Q664.51 50.70 661.89 50.66Q659.27 50.63 656.54 50.63Q653.52 50.63 650.90 50.66Q648.28 50.70 646.63 50.84V49.41Q649.07 49.26 650.29 48.83Q651.51 48.40 651.91 47.11Q652.30 45.82 652.30 43.23V7.61Q652.30 4.95 651.91 3.70Q651.51 2.44 650.25 1.97Q649.00 1.51 646.63 1.44V0.00Q648.28 0.07 650.90 0.14Q653.52 0.22 656.54 0.22Q659.27 0.22 661.89 0.14Q664.51 0.07 666.23 0.00Z M722.87 -0.86Q726.68 -0.86 728.69 0.00Q730.70 0.86 732.21 1.87Q733.07 2.37 733.61 2.62Q734.15 2.87 734.65 2.87Q735.37 2.87 735.69 2.08Q736.01 1.29 736.23 -0.29H737.88Q737.81 1.01 737.70 2.76Q737.59 4.52 737.56 7.40Q737.52 10.27 737.52 14.94H735.87Q735.65 11.42 734.32 8.11Q733.00 4.81 730.45 2.73Q727.90 0.65 723.95 0.65Q720.29 0.65 717.88 2.84Q715.47 5.03 715.47 8.62Q715.47 11.78 717.05 13.90Q718.63 16.01 721.40 17.84Q724.16 19.68 727.68 21.90Q731.27 24.20 734.15 26.46Q737.02 28.72 738.67 31.45Q740.32 34.18 740.32 38.06Q740.32 42.73 738.13 45.78Q735.94 48.83 732.28 50.34Q728.62 51.85 724.24 51.85Q720.21 51.85 717.84 50.99Q715.47 50.12 713.82 49.19Q712.24 48.18 711.38 48.18Q710.66 48.18 710.34 48.97Q710.02 49.76 709.80 51.34H708.15Q708.29 49.76 708.33 47.65Q708.37 45.53 708.40 42.08Q708.44 38.63 708.44 33.39H710.09Q710.38 37.84 711.70 41.72Q713.03 45.60 715.80 47.93Q718.56 50.27 723.16 50.27Q725.60 50.27 727.68 49.33Q729.76 48.40 731.06 46.39Q732.35 44.38 732.35 41.22Q732.35 38.28 730.95 36.05Q729.55 33.82 727.07 31.92Q724.59 30.02 721.29 28.01Q717.92 25.85 714.97 23.70Q712.03 21.54 710.27 18.67Q708.51 15.80 708.51 11.85Q708.51 7.47 710.56 4.67Q712.60 1.87 715.87 0.50Q719.14 -0.86 722.87 -0.86Z M776.61 -0.29 794.13 44.81Q795.14 47.47 796.47 48.40Q797.80 49.33 798.94 49.41V50.84Q797.22 50.70 794.89 50.66Q792.55 50.63 790.18 50.63Q787.17 50.63 784.58 50.66Q782.00 50.70 780.42 50.84V49.41Q784.08 49.26 785.05 48.15Q786.02 47.04 784.58 43.37L771.66 8.47L772.81 7.18L760.88 38.35Q759.59 41.58 759.34 43.73Q759.09 45.89 759.70 47.11Q760.31 48.33 761.82 48.83Q763.33 49.33 765.55 49.41V50.84Q763.40 50.70 761.21 50.66Q759.02 50.63 757.08 50.63Q755.36 50.63 754.03 50.66Q752.70 50.70 751.62 50.84V49.41Q753.13 49.05 754.64 47.61Q756.15 46.17 757.51 42.73L774.17 -0.29Q774.74 -0.29 775.39 -0.29Q776.04 -0.29 776.61 -0.29ZM784.15 30.16V31.60H762.75L763.47 30.16Z M809.89 0.00Q811.54 0.07 814.16 0.14Q816.78 0.22 819.36 0.22Q822.81 0.22 825.94 0.14Q829.06 0.07 830.35 0.07Q838.39 0.07 842.38 3.23Q846.37 6.39 846.37 11.35Q846.37 13.86 845.18 16.34Q844.00 18.81 841.34 20.79Q838.68 22.76 834.30 23.91V24.06Q840.33 24.70 843.78 26.64Q847.23 28.58 848.66 31.27Q850.10 33.97 850.10 36.91Q850.10 41.15 847.94 44.27Q845.79 47.39 841.73 49.12Q837.68 50.84 832.00 50.84Q830.42 50.84 827.23 50.73Q824.03 50.63 819.51 50.63Q816.78 50.63 814.16 50.66Q811.54 50.70 809.89 50.84V49.41Q812.33 49.26 813.55 48.83Q814.77 48.40 815.16 47.11Q815.56 45.82 815.56 43.23V7.61Q815.56 4.95 815.16 3.70Q814.77 2.44 813.51 1.97Q812.26 1.51 809.89 1.44ZM828.84 1.44Q825.76 1.44 824.79 2.66Q823.82 3.88 823.82 7.61V43.23Q823.82 45.74 824.25 47.04Q824.68 48.33 825.79 48.76Q826.90 49.19 829.06 49.19Q835.52 49.19 838.43 45.92Q841.34 42.66 841.34 36.62Q841.34 31.09 838.43 28.08Q835.52 25.06 828.84 25.06H821.88Q821.88 25.06 821.88 24.45Q821.88 23.84 821.88 23.84H828.05Q832.00 23.84 834.16 22.23Q836.31 20.61 837.10 17.92Q837.89 15.22 837.89 12.14Q837.89 6.82 835.81 4.13Q833.73 1.44 828.84 1.44Z M884.02 0.00V1.44Q881.65 1.51 880.43 1.97Q879.21 2.44 878.78 3.70Q878.35 4.95 878.35 7.61V43.23Q878.35 45.82 878.78 47.11Q879.21 48.40 880.43 48.83Q881.65 49.26 884.02 49.41V50.84Q882.30 50.70 879.68 50.66Q877.05 50.63 874.33 50.63Q871.31 50.63 868.69 50.66Q866.07 50.70 864.42 50.84V49.41Q866.86 49.26 868.08 48.83Q869.30 48.40 869.69 47.11Q870.09 45.82 870.09 43.23V7.61Q870.09 4.95 869.69 3.70Q869.30 2.44 868.04 1.97Q866.79 1.51 864.42 1.44V0.00Q866.07 0.07 868.69 0.14Q871.31 0.22 874.33 0.22Q877.05 0.22 879.68 0.14Q882.30 0.07 884.02 0.00Z M918.01 0.00V1.44Q915.57 1.51 914.31 1.97Q913.06 2.44 912.63 3.70Q912.20 4.95 912.20 7.61V43.52Q912.20 45.96 912.59 47.18Q912.99 48.40 914.17 48.80Q915.35 49.19 917.58 49.19H922.25Q925.34 49.19 927.45 48.33Q929.57 47.47 931.01 45.74Q932.45 44.02 933.24 41.29Q934.03 38.56 934.46 34.90H936.11Q935.89 37.20 935.89 40.93Q935.89 42.37 936.00 45.13Q936.11 47.90 936.40 50.84Q932.73 50.70 928.14 50.66Q923.54 50.63 919.95 50.63Q918.30 50.63 915.71 50.63Q913.13 50.63 910.15 50.66Q907.17 50.70 904.12 50.73Q901.06 50.77 898.26 50.84V49.41Q900.71 49.26 901.93 48.83Q903.15 48.40 903.54 47.11Q903.94 45.82 903.94 43.23V7.61Q903.94 4.95 903.54 3.70Q903.15 2.44 901.89 1.97Q900.63 1.51 898.26 1.44V0.00Q899.92 0.07 902.54 0.14Q905.16 0.22 908.17 0.22Q910.90 0.22 913.60 0.14Q916.29 0.07 918.01 0.00Z M969.31 0.00V1.44Q966.94 1.51 965.72 1.97Q964.50 2.44 964.07 3.70Q963.64 4.95 963.64 7.61V43.23Q963.64 45.82 964.07 47.11Q964.50 48.40 965.72 48.83Q966.94 49.26 969.31 49.41V50.84Q967.59 50.70 964.97 50.66Q962.34 50.63 959.62 50.63Q956.60 50.63 953.98 50.66Q951.36 50.70 949.71 50.84V49.41Q952.15 49.26 953.37 48.83Q954.59 48.40 954.98 47.11Q955.38 45.82 955.38 43.23V7.61Q955.38 4.95 954.98 3.70Q954.59 2.44 953.33 1.97Q952.08 1.51 949.71 1.44V0.00Q951.36 0.07 953.98 0.14Q956.60 0.22 959.62 0.22Q962.34 0.22 964.97 0.14Q967.59 0.07 969.31 0.00Z M1003.30 0.00V1.44Q1000.86 1.51 999.60 1.97Q998.35 2.44 997.92 3.70Q997.49 4.95 997.49 7.61V43.52Q997.49 45.96 997.88 47.18Q998.28 48.40 999.46 48.80Q1000.65 49.19 1002.87 49.19H1007.54Q1010.63 49.19 1012.75 48.33Q1014.86 47.47 1016.30 45.74Q1017.74 44.02 1018.53 41.29Q1019.32 38.56 1019.75 34.90H1021.40Q1021.18 37.20 1021.18 40.93Q1021.18 42.37 1021.29 45.13Q1021.40 47.90 1021.69 50.84Q1018.02 50.70 1013.43 50.66Q1008.83 50.63 1005.24 50.63Q1003.59 50.63 1001.00 50.63Q998.42 50.63 995.44 50.66Q992.46 50.70 989.41 50.73Q986.36 50.77 983.55 50.84V49.41Q986.00 49.26 987.22 48.83Q988.44 48.40 988.83 47.11Q989.23 45.82 989.23 43.23V7.61Q989.23 4.95 988.83 3.70Q988.44 2.44 987.18 1.97Q985.92 1.51 983.55 1.44V0.00Q985.21 0.07 987.83 0.14Q990.45 0.22 993.46 0.22Q996.19 0.22 998.89 0.14Q1001.58 0.07 1003.30 0.00Z M1054.74 0.00V1.44Q1052.30 1.51 1051.05 1.97Q1049.79 2.44 1049.36 3.70Q1048.93 4.95 1048.93 7.61V43.52Q1048.93 45.96 1049.32 47.18Q1049.72 48.40 1050.90 48.80Q1052.09 49.19 1054.31 49.19H1058.98Q1062.07 49.19 1064.19 48.33Q1066.31 47.47 1067.74 45.74Q1069.18 44.02 1069.97 41.29Q1070.76 38.56 1071.19 34.90H1072.84Q1072.63 37.20 1072.63 40.93Q1072.63 42.37 1072.73 45.13Q1072.84 47.90 1073.13 50.84Q1069.47 50.70 1064.87 50.66Q1060.27 50.63 1056.68 50.63Q1055.03 50.63 1052.45 50.63Q1049.86 50.63 1046.88 50.66Q1043.90 50.70 1040.85 50.73Q1037.80 50.77 1035.00 50.84V49.41Q1037.44 49.26 1038.66 48.83Q1039.88 48.40 1040.28 47.11Q1040.67 45.82 1040.67 43.23V7.61Q1040.67 4.95 1040.28 3.70Q1039.88 2.44 1038.62 1.97Q1037.37 1.51 1035.00 1.44V0.00Q1036.65 0.07 1039.27 0.14Q1041.89 0.22 1044.91 0.22Q1047.64 0.22 1050.33 0.14Q1053.02 0.07 1054.74 0.00Z M1107.91 -0.29 1125.43 44.81Q1126.44 47.47 1127.77 48.40Q1129.09 49.33 1130.24 49.41V50.84Q1128.52 50.70 1126.19 50.66Q1123.85 50.63 1121.48 50.63Q1118.47 50.63 1115.88 50.66Q1113.30 50.70 1111.72 50.84V49.41Q1115.38 49.26 1116.35 48.15Q1117.32 47.04 1115.88 43.37L1102.96 8.47L1104.10 7.18L1092.18 38.35Q1090.89 41.58 1090.64 43.73Q1090.39 45.89 1091.00 47.11Q1091.61 48.33 1093.12 48.83Q1094.63 49.33 1096.85 49.41V50.84Q1094.70 50.70 1092.51 50.66Q1090.32 50.63 1088.38 50.63Q1086.65 50.63 1085.33 50.66Q1084.00 50.70 1082.92 50.84V49.41Q1084.43 49.05 1085.94 47.61Q1087.44 46.17 1088.81 42.73L1105.47 -0.29Q1106.04 -0.29 1106.69 -0.29Q1107.34 -0.29 1107.91 -0.29ZM1115.45 30.16V31.60H1094.05L1094.77 30.16Z M1171.35 50.84V49.41Q1173.79 49.26 1175.01 48.83Q1176.23 48.40 1176.62 47.11Q1177.02 45.82 1177.02 43.23V7.61Q1177.02 4.95 1176.62 3.70Q1176.23 2.44 1174.97 1.97Q1173.71 1.51 1171.35 1.44V0.00Q1173.14 0.07 1175.83 0.14Q1178.53 0.22 1181.18 0.22Q1184.20 0.22 1186.78 0.14Q1189.37 0.07 1190.95 0.00V1.44Q1188.58 1.51 1187.36 1.97Q1186.14 2.44 1185.71 3.70Q1185.28 4.95 1185.28 7.61V43.23Q1185.28 45.82 1185.71 47.11Q1186.14 48.40 1187.36 48.83Q1188.58 49.26 1190.95 49.41V50.84Q1189.37 50.70 1186.78 50.66Q1184.20 50.63 1181.18 50.63Q1178.53 50.63 1175.83 50.66Q1173.14 50.70 1171.35 50.84ZM1141.18 50.84V49.41Q1143.63 49.26 1144.85 48.83Q1146.07 48.40 1146.46 47.11Q1146.86 45.82 1146.86 43.23V7.61Q1146.86 4.95 1146.46 3.70Q1146.07 2.44 1144.81 1.97Q1143.55 1.51 1141.18 1.44V0.00Q1142.84 0.07 1145.46 0.14Q1148.08 0.22 1151.09 0.22Q1153.82 0.22 1156.44 0.14Q1159.07 0.07 1160.79 0.00V1.44Q1158.42 1.51 1157.20 1.97Q1155.98 2.44 1155.55 3.70Q1155.12 4.95 1155.12 7.61V43.23Q1155.12 45.82 1155.55 47.11Q1155.98 48.40 1157.20 48.83Q1158.42 49.26 1160.79 49.41V50.84Q1159.07 50.70 1156.44 50.66Q1153.82 50.63 1151.09 50.63Q1148.08 50.63 1145.46 50.66Q1142.84 50.70 1141.18 50.84ZM1151.88 26.00V24.56H1180.25V26.00Z" fill="url(#fsWord)"/></g><rect x="596.75" y="280.02" width="167.02" height="0.8" fill="#D4AF37" opacity="0.5"/><rect x="1023.73" y="280.02" width="167.02" height="0.8" fill="#D4AF37" opacity="0.5"/><path d="M595.25 278.92 L596.75 280.42 L595.25 281.92 L593.75 280.42 Z" fill="#D4AF37" opacity="0.85"/><path d="M1192.25 278.92 L1193.75 280.42 L1192.25 281.92 L1190.75 280.42 Z" fill="#D4AF37" opacity="0.85"/><path d="M796.42 272.79Q796.34 273.61 796.30 274.38Q796.27 275.14 796.27 275.55Q796.27 276.07 796.29 276.52Q796.31 276.97 796.34 277.32H795.84Q795.69 275.81 795.43 274.94Q795.17 274.07 794.53 273.68Q793.88 273.29 792.52 273.29H791.17Q790.43 273.29 790.06 273.41Q789.68 273.53 789.55 273.90Q789.42 274.28 789.42 275.08V285.76Q789.42 286.54 789.58 286.93Q789.74 287.31 790.22 287.44Q790.69 287.57 791.60 287.62V288.05Q791.04 288.00 790.17 287.99Q789.31 287.98 788.43 287.98Q787.59 287.98 786.86 287.99Q786.12 288.00 785.67 288.05V287.62Q786.40 287.57 786.78 287.44Q787.16 287.31 787.29 286.93Q787.42 286.54 787.42 285.76V275.08Q787.42 274.28 787.29 273.90Q787.16 273.53 786.78 273.39Q786.40 273.25 785.67 273.23V272.79Q786.47 272.82 787.35 272.83Q788.24 272.84 789.10 272.85Q789.96 272.86 790.70 272.86Q791.45 272.86 791.92 272.86Q792.91 272.86 794.17 272.85Q795.43 272.84 796.42 272.79ZM793.08 280.38Q793.08 280.38 793.08 280.59Q793.08 280.81 793.08 280.81H788.77Q788.77 280.81 788.77 280.59Q788.77 280.38 788.77 280.38ZM793.49 277.53Q793.41 278.76 793.42 279.41Q793.43 280.05 793.43 280.59Q793.43 281.13 793.45 281.78Q793.47 282.42 793.56 283.65H793.06Q792.98 282.96 792.86 282.31Q792.74 281.65 792.34 281.23Q791.94 280.81 790.99 280.81V280.38Q791.70 280.38 792.08 280.09Q792.46 279.80 792.63 279.34Q792.80 278.89 792.87 278.41Q792.93 277.92 793.00 277.53Z M803.84 276.65Q805.22 276.65 806.32 277.25Q807.42 277.86 808.08 279.15Q808.73 280.44 808.73 282.51Q808.73 284.58 808.08 285.86Q807.42 287.14 806.32 287.75Q805.22 288.35 803.84 288.35Q802.49 288.35 801.38 287.75Q800.27 287.14 799.61 285.86Q798.95 284.58 798.95 282.51Q798.95 280.44 799.61 279.15Q800.27 277.86 801.38 277.25Q802.49 276.65 803.84 276.65ZM803.84 277.08Q802.62 277.08 801.83 278.35Q801.04 279.62 801.04 282.51Q801.04 285.40 801.83 286.66Q802.62 287.92 803.84 287.92Q805.07 287.92 805.86 286.66Q806.64 285.40 806.64 282.51Q806.64 279.62 805.86 278.35Q805.07 277.08 803.84 277.08Z M817.99 276.65Q818.57 276.65 819.01 276.89Q819.45 277.12 819.70 277.50Q819.95 277.88 819.95 278.35Q819.95 278.89 819.61 279.30Q819.28 279.71 818.72 279.71Q818.27 279.71 817.92 279.42Q817.58 279.13 817.58 278.59Q817.58 278.18 817.80 277.89Q818.03 277.60 818.31 277.43Q818.16 277.21 817.86 277.21Q817.19 277.21 816.63 277.61Q816.07 278.01 815.68 278.63Q815.29 279.26 815.08 279.96Q814.86 280.66 814.86 281.26V285.83Q814.86 286.88 815.48 287.24Q816.09 287.59 817.15 287.59V288.05Q816.65 288.03 815.75 287.99Q814.84 287.96 813.83 287.96Q813.10 287.96 812.37 287.99Q811.65 288.03 811.29 288.05V287.59Q812.17 287.59 812.55 287.27Q812.92 286.95 812.92 286.04V279.30Q812.92 278.33 812.58 277.87Q812.23 277.40 811.29 277.40V276.95Q811.98 277.02 812.62 277.02Q813.25 277.02 813.82 276.94Q814.39 276.87 814.86 276.72V279.41Q815.10 278.78 815.54 278.15Q815.98 277.51 816.61 277.08Q817.23 276.65 817.99 276.65Z M831.54 273.38V276.97H834.72V277.40H831.54V285.74Q831.54 286.75 831.90 287.16Q832.27 287.57 832.91 287.57Q833.56 287.57 834.03 287.05Q834.51 286.52 834.85 285.27L835.28 285.38Q835.07 286.63 834.43 287.49Q833.80 288.35 832.48 288.35Q831.75 288.35 831.28 288.17Q830.80 287.98 830.44 287.64Q829.96 287.14 829.78 286.45Q829.60 285.76 829.60 284.62V277.40H827.53V276.97H829.60V273.68Q830.14 273.66 830.63 273.59Q831.13 273.53 831.54 273.38Z M839.99 271.18V279.24Q840.55 277.77 841.55 277.21Q842.55 276.65 843.65 276.65Q844.47 276.65 845.02 276.87Q845.57 277.08 845.94 277.47Q846.35 277.90 846.52 278.55Q846.69 279.19 846.69 280.29V286.04Q846.69 286.95 847.07 287.27Q847.45 287.59 848.33 287.59V288.05Q847.96 288.03 847.21 287.99Q846.45 287.96 845.74 287.96Q845.03 287.96 844.35 287.99Q843.68 288.03 843.33 288.05V287.59Q844.11 287.59 844.43 287.27Q844.75 286.95 844.75 286.04V279.82Q844.75 279.15 844.64 278.59Q844.54 278.03 844.16 277.68Q843.78 277.34 843.01 277.34Q842.12 277.34 841.45 277.84Q840.77 278.33 840.38 279.21Q839.99 280.10 839.99 281.24V286.04Q839.99 286.95 840.31 287.27Q840.64 287.59 841.41 287.59V288.05Q841.07 288.03 840.39 287.99Q839.71 287.96 839.00 287.96Q838.29 287.96 837.54 287.99Q836.78 288.03 836.42 288.05V287.59Q837.30 287.59 837.68 287.27Q838.05 286.95 838.05 286.04V273.76Q838.05 272.79 837.71 272.33Q837.36 271.87 836.42 271.87V271.42Q837.10 271.48 837.75 271.48Q838.38 271.48 838.95 271.41Q839.52 271.33 839.99 271.18Z M855.43 276.65Q857.32 276.65 858.39 277.80Q859.46 278.96 859.46 281.39H851.85L851.83 280.98H857.39Q857.43 279.93 857.21 279.03Q857.00 278.14 856.54 277.60Q856.07 277.06 855.34 277.06Q854.35 277.06 853.58 278.05Q852.82 279.04 852.67 281.20L852.73 281.28Q852.69 281.61 852.67 281.99Q852.65 282.38 852.65 282.77Q852.65 284.23 853.12 285.29Q853.60 286.35 854.36 286.89Q855.12 287.44 855.94 287.44Q856.59 287.44 857.17 287.24Q857.75 287.03 858.25 286.56Q858.74 286.09 859.11 285.29L859.54 285.46Q859.30 286.17 858.77 286.84Q858.23 287.51 857.41 287.93Q856.59 288.35 855.51 288.35Q853.96 288.35 852.85 287.64Q851.74 286.93 851.15 285.67Q850.56 284.41 850.56 282.77Q850.56 280.87 851.16 279.51Q851.76 278.14 852.86 277.39Q853.96 276.65 855.43 276.65Z M873.18 272.56Q874.25 272.56 874.81 272.81Q875.37 273.05 875.81 273.35Q876.06 273.51 876.23 273.58Q876.39 273.66 876.54 273.66Q876.75 273.66 876.85 273.42Q876.95 273.18 877.01 272.71H877.51Q877.49 273.07 877.45 273.58Q877.42 274.09 877.41 274.92Q877.40 275.75 877.40 277.10H876.90Q876.84 276.07 876.45 275.12Q876.06 274.17 875.32 273.57Q874.58 272.97 873.37 272.97Q872.23 272.97 871.49 273.66Q870.74 274.35 870.74 275.47Q870.74 276.44 871.24 277.09Q871.73 277.75 872.56 278.28Q873.39 278.81 874.36 279.41Q875.48 280.10 876.35 280.78Q877.23 281.46 877.73 282.27Q878.24 283.09 878.24 284.26Q878.24 285.63 877.62 286.54Q876.99 287.44 875.96 287.90Q874.92 288.35 873.67 288.35Q872.53 288.35 871.86 288.09Q871.20 287.83 870.72 287.55Q870.25 287.25 869.99 287.25Q869.77 287.25 869.68 287.49Q869.58 287.72 869.51 288.20H869.02Q869.06 287.75 869.07 287.13Q869.08 286.52 869.09 285.53Q869.11 284.54 869.11 283.03H869.60Q869.69 284.32 870.09 285.44Q870.48 286.56 871.31 287.24Q872.14 287.92 873.52 287.92Q874.23 287.92 874.87 287.63Q875.50 287.34 875.91 286.70Q876.32 286.07 876.32 285.05Q876.32 284.17 875.90 283.51Q875.48 282.86 874.73 282.28Q873.97 281.71 872.96 281.11Q871.95 280.49 871.07 279.84Q870.18 279.19 869.65 278.34Q869.13 277.49 869.13 276.28Q869.13 275.01 869.70 274.18Q870.27 273.35 871.20 272.96Q872.12 272.56 873.18 272.56Z M883.89 288.20Q883.01 288.20 882.36 287.86Q881.72 287.53 881.38 286.93Q881.05 286.32 881.05 285.53Q881.05 284.58 881.49 283.98Q881.93 283.37 882.62 283.01Q883.31 282.64 884.08 282.39Q884.84 282.14 885.53 281.92Q886.22 281.69 886.66 281.39Q887.10 281.09 887.10 280.59V279.26Q887.10 278.35 886.84 277.88Q886.57 277.40 886.11 277.24Q885.66 277.08 885.10 277.08Q884.56 277.08 883.95 277.23Q883.33 277.38 882.97 277.86Q883.38 277.94 883.68 278.29Q883.98 278.63 883.98 279.17Q883.98 279.71 883.64 280.02Q883.29 280.33 882.75 280.33Q882.13 280.33 881.84 279.94Q881.55 279.54 881.55 279.04Q881.55 278.48 881.83 278.14Q882.11 277.79 882.54 277.49Q883.03 277.15 883.82 276.90Q884.61 276.65 885.60 276.65Q886.48 276.65 887.10 276.86Q887.73 277.06 888.14 277.45Q888.70 277.97 888.87 278.71Q889.04 279.45 889.04 280.49V286.47Q889.04 287.01 889.20 287.25Q889.37 287.49 889.71 287.49Q889.95 287.49 890.16 287.38Q890.38 287.27 890.68 287.03L890.92 287.40Q890.47 287.75 890.06 287.97Q889.65 288.20 888.96 288.20Q888.33 288.20 887.92 287.98Q887.51 287.77 887.31 287.35Q887.10 286.93 887.10 286.28Q886.52 287.25 885.71 287.72Q884.91 288.20 883.89 288.20ZM884.67 287.34Q885.38 287.34 885.99 286.93Q886.61 286.52 887.10 285.70V281.48Q886.85 281.84 886.35 282.09Q885.85 282.34 885.27 282.59Q884.69 282.83 884.16 283.17Q883.64 283.50 883.29 284.04Q882.95 284.58 882.95 285.44Q882.95 286.30 883.41 286.82Q883.87 287.34 884.67 287.34Z M895.86 271.16V286.04Q895.86 286.95 896.18 287.27Q896.51 287.59 897.28 287.59V288.05Q896.94 288.03 896.26 287.99Q895.58 287.96 894.89 287.96Q894.16 287.96 893.41 287.99Q892.65 288.03 892.29 288.05V287.59Q893.17 287.59 893.55 287.27Q893.92 286.95 893.92 286.04V273.74Q893.92 272.77 893.58 272.31Q893.23 271.85 892.29 271.85V271.39Q892.97 271.46 893.62 271.46Q894.25 271.46 894.82 271.38Q895.39 271.31 895.86 271.16ZM902.71 276.95V277.38Q902.17 277.43 901.70 277.67Q901.23 277.92 900.77 278.40L897.74 281.58L898.04 280.98L902.04 286.47Q902.41 286.97 902.74 287.25Q903.08 287.53 903.55 287.59V288.05Q903.32 288.03 902.81 287.99Q902.30 287.96 901.81 287.96Q901.14 287.96 900.45 287.99Q899.76 288.03 899.42 288.05V287.59Q899.85 287.59 900.02 287.38Q900.19 287.16 899.95 286.86L897.48 283.24Q897.07 282.66 896.73 282.49Q896.40 282.32 895.78 282.30V281.86Q896.46 281.78 896.90 281.57Q897.33 281.37 897.71 280.96L899.31 279.30Q900.00 278.59 900.00 278.17Q900.00 277.75 899.56 277.57Q899.11 277.38 898.40 277.38V276.95Q898.96 276.97 899.66 277.01Q900.36 277.04 900.84 277.04Q901.20 277.04 901.55 277.03Q901.89 277.02 902.19 277.00Q902.50 276.97 902.71 276.95Z M910.48 276.65Q912.37 276.65 913.44 277.80Q914.51 278.96 914.51 281.39H906.90L906.88 280.98H912.44Q912.48 279.93 912.27 279.03Q912.05 278.14 911.59 277.60Q911.12 277.06 910.39 277.06Q909.40 277.06 908.64 278.05Q907.87 279.04 907.72 281.20L907.78 281.28Q907.74 281.61 907.72 281.99Q907.70 282.38 907.70 282.77Q907.70 284.23 908.17 285.29Q908.65 286.35 909.41 286.89Q910.18 287.44 910.99 287.44Q911.64 287.44 912.22 287.24Q912.80 287.03 913.30 286.56Q913.80 286.09 914.16 285.29L914.59 285.46Q914.36 286.17 913.82 286.84Q913.28 287.51 912.46 287.93Q911.64 288.35 910.56 288.35Q909.01 288.35 907.90 287.64Q906.79 286.93 906.20 285.67Q905.61 284.41 905.61 282.77Q905.61 280.87 906.21 279.51Q906.82 278.14 907.91 277.39Q909.01 276.65 910.48 276.65Z M928.62 276.65Q930.00 276.65 931.09 277.25Q932.19 277.86 932.85 279.15Q933.51 280.44 933.51 282.51Q933.51 284.58 932.85 285.86Q932.19 287.14 931.09 287.75Q930.00 288.35 928.62 288.35Q927.26 288.35 926.15 287.75Q925.04 287.14 924.38 285.86Q923.73 284.58 923.73 282.51Q923.73 280.44 924.38 279.15Q925.04 277.86 926.15 277.25Q927.26 276.65 928.62 276.65ZM928.62 277.08Q927.39 277.08 926.60 278.35Q925.82 279.62 925.82 282.51Q925.82 285.40 926.60 286.66Q927.39 287.92 928.62 287.92Q929.84 287.92 930.63 286.66Q931.42 285.40 931.42 282.51Q931.42 279.62 930.63 278.35Q929.84 277.08 928.62 277.08Z M941.38 271.20Q941.98 271.20 942.45 271.36Q942.91 271.52 943.25 271.78Q943.58 272.04 943.75 272.39Q943.92 272.73 943.92 273.12Q943.92 273.61 943.60 273.94Q943.28 274.26 942.78 274.26Q942.31 274.26 941.95 273.95Q941.60 273.63 941.60 273.10Q941.60 272.64 941.84 272.36Q942.09 272.08 942.50 272.00Q942.44 271.80 942.17 271.66Q941.90 271.52 941.44 271.52Q940.95 271.52 940.59 271.74Q940.24 271.95 940.04 272.32Q939.79 272.77 939.72 273.67Q939.66 274.56 939.66 276.41V276.97H941.96V277.40H939.66V285.83Q939.66 286.88 940.27 287.24Q940.88 287.59 941.94 287.59V288.05Q941.44 288.03 940.54 287.99Q939.64 287.96 938.62 287.96Q937.89 287.96 937.17 287.99Q936.45 288.03 936.08 288.05V287.59Q936.96 287.59 937.34 287.27Q937.72 286.95 937.72 286.04V277.40H935.99V276.97H937.72Q937.72 275.70 937.83 274.84Q937.93 273.98 938.17 273.37Q938.41 272.75 938.82 272.28Q939.25 271.78 939.92 271.49Q940.58 271.20 941.38 271.20Z M956.74 272.69 962.00 286.24Q962.32 287.06 962.73 287.33Q963.14 287.59 963.48 287.62V288.05Q963.05 288.00 962.43 287.99Q961.80 287.98 961.18 287.98Q960.34 287.98 959.60 287.99Q958.87 288.00 958.42 288.05V287.62Q959.52 287.57 959.82 287.24Q960.12 286.91 959.69 285.81L955.68 275.10L956.03 274.82L952.28 284.56Q951.94 285.42 951.87 286.01Q951.81 286.60 951.99 286.95Q952.17 287.29 952.61 287.44Q953.06 287.59 953.72 287.62V288.05Q953.12 288.00 952.46 287.99Q951.81 287.98 951.25 287.98Q950.71 287.98 950.33 287.99Q949.95 288.00 949.63 288.05V287.62Q950.06 287.51 950.51 287.11Q950.97 286.71 951.33 285.74L956.39 272.69Q956.48 272.69 956.57 272.69Q956.65 272.69 956.74 272.69ZM959.37 281.84V282.27H952.95L953.16 281.84Z M968.32 271.16V286.04Q968.32 286.95 968.70 287.27Q969.07 287.59 969.96 287.59V288.05Q969.59 288.03 968.85 287.99Q968.10 287.96 967.35 287.96Q966.62 287.96 965.86 287.99Q965.11 288.03 964.74 288.05V287.59Q965.63 287.59 966.00 287.27Q966.38 286.95 966.38 286.04V273.74Q966.38 272.77 966.04 272.31Q965.69 271.85 964.74 271.85V271.39Q965.43 271.46 966.08 271.46Q966.70 271.46 967.27 271.38Q967.84 271.31 968.32 271.16Z M975.40 271.16V286.04Q975.40 286.95 975.77 287.27Q976.15 287.59 977.03 287.59V288.05Q976.67 288.03 975.92 287.99Q975.18 287.96 974.43 287.96Q973.69 287.96 972.94 287.99Q972.19 288.03 971.82 288.05V287.59Q972.70 287.59 973.08 287.27Q973.46 286.95 973.46 286.04V273.74Q973.46 272.77 973.11 272.31Q972.77 271.85 971.82 271.85V271.39Q972.51 271.46 973.15 271.46Q973.78 271.46 974.35 271.38Q974.92 271.31 975.40 271.16Z M982.11 288.20Q981.22 288.20 980.58 287.86Q979.93 287.53 979.60 286.93Q979.26 286.32 979.26 285.53Q979.26 284.58 979.70 283.98Q980.14 283.37 980.83 283.01Q981.52 282.64 982.29 282.39Q983.05 282.14 983.74 281.92Q984.43 281.69 984.87 281.39Q985.32 281.09 985.32 280.59V279.26Q985.32 278.35 985.05 277.88Q984.78 277.40 984.32 277.24Q983.87 277.08 983.31 277.08Q982.77 277.08 982.16 277.23Q981.55 277.38 981.18 277.86Q981.59 277.94 981.89 278.29Q982.19 278.63 982.19 279.17Q982.19 279.71 981.85 280.02Q981.50 280.33 980.96 280.33Q980.34 280.33 980.05 279.94Q979.76 279.54 979.76 279.04Q979.76 278.48 980.04 278.14Q980.32 277.79 980.75 277.49Q981.24 277.15 982.03 276.90Q982.82 276.65 983.81 276.65Q984.69 276.65 985.32 276.86Q985.94 277.06 986.35 277.45Q986.91 277.97 987.08 278.71Q987.25 279.45 987.25 280.49V286.47Q987.25 287.01 987.42 287.25Q987.58 287.49 987.92 287.49Q988.16 287.49 988.37 287.38Q988.59 287.27 988.89 287.03L989.13 287.40Q988.68 287.75 988.27 287.97Q987.86 288.20 987.17 288.20Q986.54 288.20 986.13 287.98Q985.72 287.77 985.52 287.35Q985.32 286.93 985.32 286.28Q984.73 287.25 983.93 287.72Q983.12 288.20 982.11 288.20ZM982.88 287.34Q983.59 287.34 984.21 286.93Q984.82 286.52 985.32 285.70V281.48Q985.06 281.84 984.56 282.09Q984.07 282.34 983.48 282.59Q982.90 282.83 982.37 283.17Q981.85 283.50 981.50 284.04Q981.16 284.58 981.16 285.44Q981.16 286.30 981.62 286.82Q982.08 287.34 982.88 287.34Z M994.07 271.18V279.24Q994.63 277.77 995.63 277.21Q996.64 276.65 997.73 276.65Q998.55 276.65 999.10 276.87Q999.65 277.08 1000.02 277.47Q1000.43 277.90 1000.60 278.55Q1000.77 279.19 1000.77 280.29V286.04Q1000.77 286.95 1001.15 287.27Q1001.53 287.59 1002.41 287.59V288.05Q1002.04 288.03 1001.29 287.99Q1000.54 287.96 999.82 287.96Q999.11 287.96 998.43 287.99Q997.76 288.03 997.41 288.05V287.59Q998.19 287.59 998.51 287.27Q998.83 286.95 998.83 286.04V279.82Q998.83 279.15 998.73 278.59Q998.62 278.03 998.24 277.68Q997.86 277.34 997.09 277.34Q996.20 277.34 995.53 277.84Q994.85 278.33 994.46 279.21Q994.07 280.10 994.07 281.24V286.04Q994.07 286.95 994.40 287.27Q994.72 287.59 995.49 287.59V288.05Q995.15 288.03 994.47 287.99Q993.79 287.96 993.08 287.96Q992.37 287.96 991.62 287.99Q990.86 288.03 990.50 288.05V287.59Q991.38 287.59 991.76 287.27Q992.13 286.95 992.13 286.04V273.76Q992.13 272.79 991.79 272.33Q991.44 271.87 990.50 271.87V271.42Q991.19 271.48 991.83 271.48Q992.46 271.48 993.03 271.41Q993.60 271.33 994.07 271.18Z" fill="#6BAA7D"/><path d="M791.81 319.32Q790.81 319.32 790.07 319.01Q789.33 318.70 788.91 318.10Q788.49 317.50 788.46 316.65H789.99Q790.03 317.10 790.27 317.40Q790.51 317.71 790.91 317.85Q791.31 318.00 791.80 318.00Q792.31 318.00 792.70 317.84Q793.09 317.69 793.31 317.41Q793.54 317.13 793.54 316.75Q793.54 316.42 793.34 316.20Q793.15 315.98 792.80 315.82Q792.44 315.67 791.97 315.55L790.99 315.30Q789.91 315.02 789.30 314.46Q788.70 313.89 788.70 312.98Q788.70 312.21 789.11 311.64Q789.52 311.06 790.23 310.75Q790.95 310.43 791.85 310.43Q792.78 310.43 793.47 310.75Q794.17 311.07 794.56 311.63Q794.95 312.19 794.97 312.91H793.47Q793.41 312.36 792.97 312.05Q792.53 311.75 791.83 311.75Q791.34 311.75 790.99 311.90Q790.64 312.04 790.45 312.30Q790.26 312.55 790.26 312.88Q790.26 313.24 790.49 313.48Q790.71 313.71 791.05 313.85Q791.39 313.99 791.74 314.07L792.54 314.28Q793.02 314.40 793.48 314.59Q793.93 314.78 794.29 315.07Q794.65 315.37 794.87 315.79Q795.08 316.20 795.08 316.77Q795.08 317.53 794.70 318.10Q794.31 318.68 793.58 319.00Q792.84 319.32 791.81 319.32Z M798.58 319.19V310.55H804.19V311.85H800.13V314.18H803.89V315.47H800.13V317.89H804.22V319.19Z M807.85 319.19V310.55H811.08Q812.07 310.55 812.75 310.90Q813.43 311.24 813.78 311.87Q814.12 312.49 814.12 313.31Q814.12 314.14 813.77 314.75Q813.42 315.36 812.74 315.69Q812.05 316.02 811.05 316.02H808.75V314.74H810.85Q811.44 314.74 811.81 314.57Q812.18 314.40 812.36 314.09Q812.54 313.77 812.54 313.31Q812.54 312.85 812.36 312.52Q812.18 312.19 811.81 312.02Q811.43 311.85 810.84 311.85H809.40V319.19ZM812.71 319.19 810.61 315.27H812.30L814.44 319.19Z M820.17 319.19 817.09 310.55H818.79L820.32 315.04Q820.54 315.71 820.79 316.59Q821.04 317.47 821.33 318.58H821.00Q821.29 317.45 821.53 316.58Q821.77 315.71 821.98 315.04L823.47 310.55H825.16L822.13 319.19Z M828.39 319.19V310.55H834.00V311.85H829.94V314.18H833.70V315.47H829.94V317.89H834.03V319.19Z" fill="#D4AF37"/><path d="M841.19 313.23 L842.84 314.87 L841.19 316.51 L839.55 314.87 Z" fill="#D4AF37" opacity="0.9"/><path d="M848.55 319.19V310.55H850.09V317.89H853.91V319.19Z M857.34 319.19V310.55H862.95V311.85H858.89V314.18H862.65V315.47H858.89V317.89H862.98V319.19Z M866.02 319.19 869.04 310.55H871.01L874.09 319.19H872.39L870.86 314.70Q870.63 314.00 870.39 313.13Q870.14 312.25 869.85 311.13H870.17Q869.88 312.26 869.65 313.14Q869.41 314.03 869.20 314.70L867.72 319.19ZM867.78 317.05V315.80H872.34V317.05Z M877.32 319.19V310.55H880.55Q881.55 310.55 882.22 310.90Q882.90 311.24 883.25 311.87Q883.60 312.49 883.60 313.31Q883.60 314.14 883.25 314.75Q882.90 315.36 882.21 315.69Q881.53 316.02 880.53 316.02H878.22V314.74H880.33Q880.91 314.74 881.28 314.57Q881.66 314.40 881.84 314.09Q882.02 313.77 882.02 313.31Q882.02 312.85 881.84 312.52Q881.66 312.19 881.28 312.02Q880.91 311.85 880.32 311.85H878.87V319.19ZM882.18 319.19 880.08 315.27H881.78L883.92 319.19Z M887.15 319.19V310.55H888.90L891.89 315.31Q892.07 315.61 892.28 315.98Q892.49 316.35 892.72 316.81Q892.94 317.28 893.16 317.84H892.99Q892.95 317.35 892.92 316.84Q892.88 316.32 892.87 315.86Q892.85 315.40 892.85 315.08V310.55H894.43V319.19H892.67L889.97 314.90Q889.72 314.49 889.49 314.09Q889.26 313.69 889.00 313.19Q888.74 312.68 888.37 311.97H888.59Q888.63 312.60 888.65 313.17Q888.68 313.73 888.70 314.18Q888.72 314.63 888.72 314.90V319.19Z" fill="#D4AF37"/><path d="M901.78 313.23 L903.42 314.87 L901.78 316.51 L900.14 314.87 Z" fill="#D4AF37" opacity="0.9"/><path d="M912.86 319.31Q911.67 319.31 910.77 318.77Q909.87 318.23 909.36 317.24Q908.86 316.24 908.86 314.88Q908.86 313.48 909.38 312.49Q909.90 311.49 910.79 310.96Q911.68 310.43 912.81 310.43Q913.53 310.43 914.15 310.64Q914.76 310.85 915.25 311.23Q915.73 311.62 916.04 312.15Q916.35 312.68 916.45 313.31H914.87Q914.76 312.96 914.58 312.69Q914.40 312.42 914.14 312.22Q913.88 312.02 913.55 311.92Q913.23 311.82 912.83 311.82Q912.14 311.82 911.59 312.17Q911.04 312.53 910.73 313.20Q910.41 313.88 910.41 314.87Q910.41 315.84 910.73 316.52Q911.04 317.21 911.59 317.56Q912.14 317.92 912.87 317.92Q913.53 317.92 914.01 317.66Q914.50 317.41 914.76 316.94Q915.02 316.47 915.02 315.83L915.38 315.89H913.03V314.67H916.53V315.71Q916.53 316.82 916.05 317.63Q915.58 318.44 914.76 318.87Q913.93 319.31 912.86 319.31Z M920.10 319.19V310.55H923.33Q924.33 310.55 925.01 310.90Q925.68 311.24 926.03 311.87Q926.38 312.49 926.38 313.31Q926.38 314.14 926.03 314.75Q925.68 315.36 924.99 315.69Q924.31 316.02 923.31 316.02H921.00V314.74H923.11Q923.69 314.74 924.07 314.57Q924.44 314.40 924.62 314.09Q924.80 313.77 924.80 313.31Q924.80 312.85 924.62 312.52Q924.44 312.19 924.06 312.02Q923.69 311.85 923.10 311.85H921.65V319.19ZM924.96 319.19 922.87 315.27H924.56L926.70 319.19Z M933.63 319.31Q932.49 319.31 931.59 318.78Q930.69 318.25 930.17 317.26Q929.66 316.27 929.66 314.87Q929.66 313.48 930.17 312.48Q930.69 311.49 931.59 310.96Q932.49 310.43 933.63 310.43Q934.76 310.43 935.66 310.96Q936.55 311.49 937.07 312.48Q937.59 313.48 937.59 314.87Q937.59 316.27 937.07 317.26Q936.55 318.26 935.66 318.78Q934.76 319.31 933.63 319.31ZM933.63 317.92Q934.33 317.92 934.87 317.57Q935.42 317.22 935.72 316.54Q936.03 315.85 936.03 314.87Q936.03 313.88 935.72 313.20Q935.42 312.52 934.87 312.17Q934.33 311.82 933.63 311.82Q932.92 311.82 932.38 312.17Q931.83 312.53 931.52 313.21Q931.21 313.89 931.21 314.87Q931.21 315.85 931.52 316.53Q931.83 317.21 932.38 317.57Q932.92 317.92 933.63 317.92Z M942.88 319.19 940.55 310.55H942.22L943.34 315.15Q943.46 315.65 943.56 316.20Q943.66 316.75 943.76 317.31Q943.85 317.86 943.94 318.40H943.69Q943.79 317.86 943.89 317.31Q943.99 316.75 944.10 316.20Q944.21 315.65 944.33 315.15L945.50 310.55H947.14L948.31 315.15Q948.44 315.65 948.54 316.20Q948.65 316.75 948.75 317.31Q948.85 317.86 948.96 318.40H948.69Q948.78 317.86 948.88 317.31Q948.98 316.75 949.08 316.20Q949.18 315.65 949.30 315.15L950.42 310.55H952.09L949.75 319.19H947.98L946.72 314.42Q946.54 313.75 946.41 312.97Q946.28 312.18 946.13 311.31H946.50Q946.34 312.15 946.23 312.92Q946.11 313.69 945.92 314.42L944.66 319.19Z" fill="#D4AF37"/><path d="M958.86 313.23 L960.51 314.87 L958.86 316.51 L957.22 314.87 Z" fill="#D4AF37" opacity="0.9"/><path d="M969.95 319.31Q968.75 319.31 967.85 318.77Q966.95 318.23 966.45 317.24Q965.94 316.24 965.94 314.88Q965.94 313.48 966.46 312.49Q966.98 311.49 967.87 310.96Q968.77 310.43 969.90 310.43Q970.61 310.43 971.23 310.64Q971.85 310.85 972.33 311.23Q972.82 311.62 973.13 312.15Q973.44 312.68 973.54 313.31H971.95Q971.85 312.96 971.67 312.69Q971.48 312.42 971.22 312.22Q970.97 312.02 970.64 311.92Q970.31 311.82 969.92 311.82Q969.22 311.82 968.67 312.17Q968.12 312.53 967.81 313.20Q967.50 313.88 967.50 314.87Q967.50 315.84 967.81 316.52Q968.12 317.21 968.67 317.56Q969.23 317.92 969.95 317.92Q970.61 317.92 971.10 317.66Q971.58 317.41 971.84 316.94Q972.11 316.47 972.11 315.83L972.46 315.89H970.11V314.67H973.61V315.71Q973.61 316.82 973.14 317.63Q972.67 318.44 971.84 318.87Q971.01 319.31 969.95 319.31Z M978.74 310.55V319.19H977.19V310.55Z M985.05 319.19 981.97 310.55H983.67L985.20 315.04Q985.42 315.71 985.67 316.59Q985.92 317.47 986.21 318.58H985.88Q986.17 317.45 986.41 316.58Q986.65 315.71 986.86 315.04L988.35 310.55H990.04L987.01 319.19Z M993.27 319.19V310.55H998.88V311.85H994.82V314.18H998.58V315.47H994.82V317.89H998.91V319.19Z" fill="#D4AF37"/></svg>