<svg xmlns="http://www.w3.org/2000/svg" viewBox="0 0 64 64" width="64" height="64" role="img" aria-label="community"><g fill="none" stroke="#7A5E15" stroke-width="2.6" stroke-linecap="round" stroke-linejoin="round"><circle cx="24" cy="30" r="5"/><circle cx="40" cy="30" r="5"/><path d="M14 48 C14 41.4 18.6 37.5 24 37.5 C29.4 37.5 34 41.4 34 48"/><path d="M30 48 C30 41.4 34.6 37.5 40 37.5 C45.4 37.5 50 41.4 50 48"/><path d="M32 14 C34.6 11.4 38.6 11.6 40.8 14.4 C42.8 17 42.2 20.4 39.6 22.4 L32 28.2 L24.4 22.4 C21.8 20.4 21.2 17 23.2 14.4 C25.4 11.6 29.4 11.4 32 14 Z"/></g></svg>